<?xml version="1.0" encoding="UTF-8"?>
<svg id="Layer_2" data-name="Layer 2" xmlns="http://www.w3.org/2000/svg" viewBox="0 0 782.46 148.04">
  <defs>
    <style>
      .cls-1 {
        fill: #1a1a1a;
      }
    </style>
  </defs>
  <g id="TYPE_DESIGN" data-name="TYPE/DESIGN">
    <g>
      <g>
        <g>
          <path class="cls-1" d="M150.02,0h36.89c20.29,0,35.35,15.06,35.35,35.35v72.24h-49.19v-44.42h-9.22v44.42h-49.19V35.35c0-20.29,15.06-35.35,35.35-35.35Z"/>
          <path class="cls-1" d="M231.71,63.17h37.66l-24.59-12.14c-9.22-4.61-13.53-11.37-13.53-21.67v-6.3c0-14.91,8.15-23.06,23.06-23.06h77.01v44.42h-35.2l24.13,11.99c9.22,4.61,13.37,11.53,13.37,21.83v6.3c0,14.91-8.15,23.06-23.06,23.06h-78.85v-44.42Z"/>
          <path class="cls-1" d="M363.79,43.88h-23.06V0h95.3v43.88h-23.06v63.72h-49.19v-63.72Z"/>
          <path class="cls-1" d="M443.34,0h70.7c20.29,0,35.35,15.06,35.35,35.35v9.22c0,10.91-4.46,20.44-11.53,26.75l17.06,36.27h-50.57l-11.84-27.05v27.05h-49.19V0Z"/>
          <path class="cls-1" d="M595.55,0h36.89c20.29,0,35.35,15.06,35.35,35.35v72.24h-49.19v-44.42h-9.22v44.42h-49.19V35.35c0-20.29,15.06-35.35,35.35-35.35Z"/>
        </g>
        <g>
          <path class="cls-1" d="M152.29,139.05c-.07,1.13-.32,2.15-.73,3.06-.42.91-.98,1.68-1.68,2.32-.7.64-1.54,1.13-2.51,1.48s-2.04.52-3.22.52c-1.33,0-2.51-.25-3.54-.73-1.03-.49-1.9-1.18-2.6-2.06-.7-.88-1.24-1.94-1.61-3.18-.37-1.24-.56-2.6-.56-4.08v-3.03c0-1.49.2-2.86.59-4.1.39-1.24.95-2.3,1.67-3.19.72-.89,1.6-1.57,2.62-2.06,1.03-.49,2.18-.73,3.46-.73s2.34.18,3.3.53c.96.35,1.79.85,2.47,1.5.68.65,1.22,1.44,1.61,2.38.39.94.64,2,.74,3.17h-4.33c-.04-.67-.14-1.26-.3-1.76-.16-.5-.39-.93-.7-1.26-.3-.33-.69-.59-1.14-.76-.46-.17-1.01-.26-1.65-.26s-1.25.14-1.75.43c-.49.29-.9.71-1.23,1.27-.32.56-.56,1.24-.72,2.05-.15.81-.23,1.73-.23,2.76v3.06c0,2.22.31,3.86.94,4.92.62,1.06,1.61,1.59,2.96,1.59,1.13,0,2.03-.3,2.69-.9s1.03-1.58,1.1-2.93h4.35Z"/>
          <path class="cls-1" d="M171.38,136.5c0,1.44-.19,2.77-.57,3.99-.38,1.22-.93,2.26-1.65,3.14-.72.88-1.6,1.56-2.64,2.05-1.04.49-2.2.73-3.5.73s-2.45-.24-3.46-.73c-1.01-.49-1.86-1.18-2.55-2.06-.69-.88-1.22-1.93-1.58-3.14s-.54-2.54-.54-3.98v-3.28c0-1.44.18-2.77.54-3.99.36-1.22.89-2.27,1.58-3.15.69-.88,1.54-1.57,2.54-2.06,1-.5,2.16-.74,3.46-.74s2.48.25,3.52.74c1.04.49,1.92,1.18,2.64,2.06.72.88,1.27,1.93,1.65,3.15.38,1.22.57,2.55.57,3.99v3.28ZM166.97,133.19c0-.92-.08-1.76-.22-2.54-.15-.77-.38-1.44-.7-2-.32-.56-.73-.99-1.23-1.31s-1.11-.47-1.82-.47-1.29.16-1.76.47c-.47.31-.86.75-1.14,1.31s-.5,1.22-.62,2-.19,1.62-.19,2.54v3.31c0,.91.06,1.75.19,2.52.12.77.33,1.44.62,2.01.29.57.67,1.01,1.14,1.33.47.32,1.07.48,1.78.48s1.3-.16,1.8-.48c.5-.32.91-.76,1.22-1.32.31-.56.55-1.23.7-2,.15-.77.23-1.62.23-2.54v-3.31Z"/>
          <path class="cls-1" d="M180.01,123.59l2.13,8.46,2.43-8.46h5.4v22.52h-3.99v-6.67l.19-10.53-2.95,9.77h-2.15l-2.65-9.36.19,10.11v6.67h-3.99v-22.52h5.4Z"/>
          <path class="cls-1" d="M194.64,123.59h13.02v3.51h-4.39v15.51h4.39v3.5h-13.02v-3.5h4.28v-15.51h-4.28v-3.51Z"/>
          <path class="cls-1" d="M228.32,139.05c-.07,1.13-.32,2.15-.73,3.06-.42.91-.98,1.68-1.68,2.32-.7.64-1.54,1.13-2.51,1.48s-2.04.52-3.22.52c-1.33,0-2.51-.25-3.54-.73-1.03-.49-1.9-1.18-2.6-2.06-.7-.88-1.24-1.94-1.61-3.18-.37-1.24-.56-2.6-.56-4.08v-3.03c0-1.49.2-2.86.59-4.1.39-1.24.95-2.3,1.67-3.19.72-.89,1.6-1.57,2.62-2.06,1.03-.49,2.18-.73,3.46-.73s2.34.18,3.3.53c.96.35,1.79.85,2.47,1.5.68.65,1.22,1.44,1.61,2.38.39.94.64,2,.74,3.17h-4.33c-.04-.67-.14-1.26-.3-1.76-.16-.5-.39-.93-.7-1.26-.3-.33-.69-.59-1.14-.76-.46-.17-1.01-.26-1.65-.26s-1.25.14-1.75.43c-.49.29-.9.71-1.23,1.27-.32.56-.56,1.24-.72,2.05-.15.81-.23,1.73-.23,2.76v3.06c0,2.22.31,3.86.94,4.92.62,1.06,1.61,1.59,2.96,1.59,1.13,0,2.03-.3,2.69-.9s1.03-1.58,1.1-2.93h4.35Z"/>
          <path class="cls-1" d="M243.39,140.23c0-.4-.07-.78-.21-1.13s-.38-.68-.71-.98c-.33-.3-.77-.58-1.31-.83-.54-.25-1.21-.49-2.02-.7-.98-.27-1.92-.6-2.81-1.01-.89-.4-1.68-.89-2.36-1.45-.68-.57-1.22-1.23-1.63-1.98-.41-.75-.61-1.62-.61-2.6s.2-1.81.6-2.58c.4-.77.96-1.43,1.67-1.98s1.55-.97,2.52-1.26,2.02-.44,3.16-.44,2.25.17,3.22.51c.97.34,1.81.82,2.51,1.43s1.25,1.34,1.64,2.19c.39.85.59,1.77.59,2.78h-4.24c-.02-.51-.11-.97-.27-1.39-.16-.42-.4-.79-.71-1.09s-.71-.54-1.18-.71c-.47-.17-1.02-.26-1.65-.26-.58,0-1.09.07-1.54.21s-.83.33-1.14.59c-.31.25-.54.55-.7.9-.16.35-.24.72-.24,1.12,0,.42.11.8.32,1.14s.52.65.92.92c.4.27.89.52,1.46.75.57.23,1.22.44,1.94.63,1.03.3,1.98.67,2.85,1.1s1.61.95,2.23,1.54c.62.59,1.11,1.27,1.45,2.03.35.76.52,1.6.52,2.53,0,.99-.2,1.87-.6,2.64-.4.77-.95,1.42-1.65,1.95-.7.53-1.54.93-2.51,1.21-.97.27-2.03.41-3.17.41-.71,0-1.42-.06-2.13-.19s-1.38-.33-2.03-.6c-.64-.27-1.25-.6-1.8-1-.56-.4-1.04-.87-1.45-1.41-.41-.54-.73-1.14-.96-1.82-.23-.68-.35-1.43-.35-2.26h4.27c.02.68.14,1.26.36,1.75.22.48.52.88.9,1.19.39.31.85.54,1.39.68.54.14,1.14.22,1.79.22.58,0,1.09-.07,1.54-.2.45-.13.83-.32,1.14-.56.31-.24.55-.52.71-.86.16-.33.25-.7.25-1.11Z"/>
          <path class="cls-1" d="M275.09,148.04h-4.01l8.43-24.45h4.01l-8.43,24.45Z"/>
          <path class="cls-1" d="M294.1,148.04h-4.01l8.43-24.45h4.01l-8.43,24.45Z"/>
          <path class="cls-1" d="M338.42,140.23c0-.4-.07-.78-.21-1.13s-.38-.68-.71-.98c-.33-.3-.77-.58-1.31-.83-.54-.25-1.21-.49-2.02-.7-.98-.27-1.92-.6-2.81-1.01-.89-.4-1.68-.89-2.36-1.45-.68-.57-1.22-1.23-1.63-1.98-.41-.75-.61-1.62-.61-2.6s.2-1.81.6-2.58c.4-.77.96-1.43,1.67-1.98s1.55-.97,2.52-1.26,2.02-.44,3.16-.44,2.25.17,3.22.51c.97.34,1.81.82,2.51,1.43s1.25,1.34,1.64,2.19c.39.85.59,1.77.59,2.78h-4.24c-.02-.51-.11-.97-.27-1.39-.16-.42-.4-.79-.71-1.09s-.71-.54-1.18-.71c-.47-.17-1.02-.26-1.65-.26-.58,0-1.09.07-1.54.21s-.83.33-1.14.59c-.31.25-.54.55-.7.9-.16.35-.24.72-.24,1.12,0,.42.11.8.32,1.14s.52.65.92.92c.4.27.89.52,1.46.75.57.23,1.22.44,1.94.63,1.03.3,1.98.67,2.85,1.1s1.61.95,2.23,1.54c.62.59,1.11,1.27,1.45,2.03.35.76.52,1.6.52,2.53,0,.99-.2,1.87-.6,2.64-.4.77-.95,1.42-1.65,1.95-.7.53-1.54.93-2.51,1.21-.97.27-2.03.41-3.17.41-.71,0-1.42-.06-2.13-.19s-1.38-.33-2.03-.6c-.64-.27-1.25-.6-1.8-1-.56-.4-1.04-.87-1.45-1.41-.41-.54-.73-1.14-.96-1.82-.23-.68-.35-1.43-.35-2.26h4.27c.02.68.14,1.26.36,1.75.22.48.52.88.9,1.19.39.31.85.54,1.39.68.54.14,1.14.22,1.79.22.58,0,1.09-.07,1.54-.2.45-.13.83-.32,1.14-.56.31-.24.55-.52.71-.86.16-.33.25-.7.25-1.11Z"/>
          <path class="cls-1" d="M362.29,127.13h-6.94v18.98h-4.36v-18.98h-6.85v-3.54h18.16v3.54Z"/>
          <path class="cls-1" d="M380.46,136.5c0,1.44-.19,2.77-.57,3.99-.38,1.22-.93,2.26-1.65,3.14-.72.88-1.6,1.56-2.64,2.05-1.04.49-2.2.73-3.5.73s-2.45-.24-3.46-.73c-1.01-.49-1.86-1.18-2.55-2.06-.69-.88-1.22-1.93-1.58-3.14s-.54-2.54-.54-3.98v-3.28c0-1.44.18-2.77.54-3.99.36-1.22.89-2.27,1.58-3.15.69-.88,1.54-1.57,2.54-2.06,1-.5,2.16-.74,3.46-.74s2.48.25,3.52.74c1.04.49,1.92,1.18,2.64,2.06.72.88,1.27,1.93,1.65,3.15.38,1.22.57,2.55.57,3.99v3.28ZM376.05,133.19c0-.92-.08-1.76-.22-2.54-.15-.77-.38-1.44-.7-2-.32-.56-.73-.99-1.23-1.31s-1.11-.47-1.82-.47-1.29.16-1.76.47c-.47.31-.86.75-1.14,1.31s-.5,1.22-.62,2-.19,1.62-.19,2.54v3.31c0,.91.06,1.75.19,2.52.12.77.33,1.44.62,2.01.29.57.67,1.01,1.14,1.33.47.32,1.07.48,1.78.48s1.3-.16,1.8-.48c.5-.32.91-.76,1.22-1.32.31-.56.55-1.23.7-2,.15-.77.23-1.62.23-2.54v-3.31Z"/>
          <path class="cls-1" d="M391.39,137.69h-3.29v8.41h-4.35v-22.52h7.55c1.25,0,2.38.15,3.39.44,1.01.29,1.87.72,2.59,1.29.72.57,1.27,1.27,1.66,2.12.39.85.58,1.82.58,2.94,0,.8-.09,1.53-.29,2.17-.19.64-.46,1.22-.82,1.73-.36.51-.78.96-1.28,1.34-.5.38-1.06.71-1.68.99l4.84,9.29v.2h-4.66l-4.24-8.41ZM388.1,134.17h3.22c1.23,0,2.17-.31,2.84-.94.67-.62,1-1.48,1-2.56s-.32-2-.97-2.62c-.65-.62-1.61-.94-2.88-.94h-3.2v7.05Z"/>
          <path class="cls-1" d="M403.72,123.59h13.02v3.51h-4.39v15.51h4.39v3.5h-13.02v-3.5h4.28v-15.51h-4.28v-3.51Z"/>
          <path class="cls-1" d="M435.63,136.24h-9.25v6.36h10.81v3.51h-15.17v-22.52h15.12v3.54h-10.76v5.68h9.25v3.43Z"/>
          <path class="cls-1" d="M452.47,140.23c0-.4-.07-.78-.21-1.13-.14-.35-.38-.68-.71-.98-.33-.3-.77-.58-1.31-.83-.54-.25-1.21-.49-2.02-.7-.98-.27-1.92-.6-2.81-1.01-.89-.4-1.68-.89-2.36-1.45-.68-.57-1.22-1.23-1.63-1.98-.41-.75-.61-1.62-.61-2.6s.2-1.81.6-2.58.96-1.43,1.67-1.98c.71-.55,1.55-.97,2.52-1.26.97-.29,2.02-.44,3.15-.44s2.25.17,3.22.51c.97.34,1.81.82,2.51,1.43s1.25,1.34,1.64,2.19c.39.85.59,1.77.59,2.78h-4.24c-.02-.51-.11-.97-.27-1.39s-.4-.79-.71-1.09c-.32-.3-.71-.54-1.18-.71-.47-.17-1.02-.26-1.65-.26-.58,0-1.09.07-1.54.21-.45.14-.83.33-1.14.59-.31.25-.54.55-.7.9-.16.35-.24.72-.24,1.12,0,.42.11.8.32,1.14s.52.65.92.92c.4.27.89.52,1.46.75.57.23,1.22.44,1.94.63,1.03.3,1.98.67,2.85,1.1.87.43,1.61.95,2.23,1.54.62.59,1.11,1.27,1.45,2.03.34.76.52,1.6.52,2.53,0,.99-.2,1.87-.6,2.64-.4.77-.95,1.42-1.65,1.95-.7.53-1.54.93-2.51,1.21-.97.27-2.03.41-3.17.41-.71,0-1.42-.06-2.13-.19s-1.38-.33-2.03-.6c-.64-.27-1.24-.6-1.8-1-.56-.4-1.04-.87-1.45-1.41-.41-.54-.73-1.14-.96-1.82-.23-.68-.35-1.43-.35-2.26h4.27c.02.68.14,1.26.36,1.75.22.48.52.88.9,1.19.39.31.85.54,1.39.68.54.14,1.14.22,1.79.22.58,0,1.09-.07,1.54-.2.45-.13.83-.32,1.14-.56.31-.24.55-.52.71-.86s.25-.7.25-1.11Z"/>
          <path class="cls-1" d="M484.17,148.04h-4.01l8.43-24.45h4.01l-8.43,24.45Z"/>
          <path class="cls-1" d="M503.18,148.04h-4.01l8.43-24.45h4.01l-8.43,24.45Z"/>
          <path class="cls-1" d="M546.83,137.15l1.64-13.56h3.99l-3.12,22.52h-3.93l-2.13-13.3-2.06,13.3h-3.93l-3.09-22.52h3.97l1.61,13.47,1.92-13.47h3.11l2.03,13.56Z"/>
          <path class="cls-1" d="M570.54,136.5c0,1.44-.19,2.77-.57,3.99-.38,1.22-.93,2.26-1.66,3.14-.72.88-1.6,1.56-2.64,2.05s-2.2.73-3.5.73-2.45-.24-3.46-.73c-1.01-.49-1.86-1.18-2.55-2.06-.69-.88-1.22-1.93-1.58-3.14-.36-1.21-.54-2.54-.54-3.98v-3.28c0-1.44.18-2.77.54-3.99.36-1.22.89-2.27,1.58-3.15.69-.88,1.54-1.57,2.54-2.06,1-.5,2.16-.74,3.46-.74s2.48.25,3.52.74c1.04.49,1.92,1.18,2.64,2.06.72.88,1.27,1.93,1.66,3.15.38,1.22.57,2.55.57,3.99v3.28ZM566.13,133.19c0-.92-.07-1.76-.22-2.54s-.38-1.44-.7-2-.73-.99-1.23-1.31-1.11-.47-1.82-.47-1.29.16-1.76.47c-.47.31-.86.75-1.14,1.31-.29.56-.5,1.22-.62,2-.12.77-.19,1.62-.19,2.54v3.31c0,.91.06,1.75.19,2.52.12.77.33,1.44.62,2.01.29.57.67,1.01,1.14,1.33.47.32,1.07.48,1.78.48s1.3-.16,1.8-.48c.5-.32.91-.76,1.22-1.32s.55-1.23.7-2c.15-.77.23-1.62.23-2.54v-3.31Z"/>
          <path class="cls-1" d="M581.47,137.69h-3.29v8.41h-4.35v-22.52h7.55c1.25,0,2.38.15,3.39.44,1.01.29,1.87.72,2.59,1.29.72.57,1.27,1.27,1.66,2.12.39.85.58,1.82.58,2.94,0,.8-.09,1.53-.29,2.17-.19.64-.46,1.22-.82,1.73-.36.51-.78.96-1.28,1.34-.5.38-1.06.71-1.68.99l4.84,9.29v.2h-4.66l-4.24-8.41ZM578.18,134.17h3.22c1.23,0,2.17-.31,2.84-.94.67-.62,1-1.48,1-2.56s-.32-2-.97-2.62c-.65-.62-1.61-.94-2.88-.94h-3.2v7.05Z"/>
          <path class="cls-1" d="M597.49,142.6h10.55v3.51h-14.91v-22.52h4.36v19.01Z"/>
          <path class="cls-1" d="M611.75,146.11v-22.52h5.83c1.5,0,2.85.26,4.06.77,1.21.51,2.25,1.22,3.11,2.13.86.91,1.53,2,1.99,3.27.47,1.27.7,2.66.7,4.18v1.86c0,1.52-.23,2.9-.7,4.17-.47,1.26-1.13,2.35-1.97,3.26s-1.86,1.62-3.05,2.13c-1.19.51-2.5.76-3.93.76h-6.05ZM616.13,127.11v15.5h1.67c.81,0,1.54-.15,2.19-.46.64-.31,1.19-.76,1.64-1.35.45-.59.79-1.3,1.03-2.14.24-.84.36-1.8.36-2.87v-1.89c0-1.01-.12-1.93-.35-2.76-.23-.83-.58-1.54-1.04-2.14-.46-.6-1.03-1.06-1.7-1.39-.67-.33-1.46-.49-2.34-.49h-1.45Z"/>
          <path class="cls-1" d="M642.55,140.23c0-.4-.07-.78-.21-1.13-.14-.35-.38-.68-.71-.98-.33-.3-.77-.58-1.31-.83-.54-.25-1.21-.49-2.02-.7-.98-.27-1.92-.6-2.81-1.01-.89-.4-1.68-.89-2.36-1.45-.68-.57-1.22-1.23-1.63-1.98-.41-.75-.61-1.62-.61-2.6s.2-1.81.6-2.58.96-1.43,1.67-1.98c.71-.55,1.55-.97,2.52-1.26.97-.29,2.02-.44,3.15-.44s2.25.17,3.22.51c.97.34,1.81.82,2.51,1.43s1.25,1.34,1.64,2.19c.39.85.59,1.77.59,2.78h-4.24c-.02-.51-.11-.97-.27-1.39s-.4-.79-.71-1.09c-.32-.3-.71-.54-1.18-.71-.47-.17-1.02-.26-1.65-.26-.58,0-1.09.07-1.54.21-.45.14-.83.33-1.14.59-.31.25-.54.55-.7.9-.16.35-.24.72-.24,1.12,0,.42.11.8.32,1.14s.52.65.92.92c.4.27.89.52,1.46.75.57.23,1.22.44,1.94.63,1.03.3,1.98.67,2.85,1.1.87.43,1.61.95,2.23,1.54s1.11,1.27,1.45,2.03c.34.76.52,1.6.52,2.53,0,.99-.2,1.87-.6,2.64-.4.77-.95,1.42-1.65,1.95-.7.53-1.54.93-2.51,1.21-.97.27-2.03.41-3.17.41-.71,0-1.42-.06-2.13-.19s-1.38-.33-2.03-.6c-.64-.27-1.24-.6-1.8-1-.56-.4-1.04-.87-1.45-1.41-.41-.54-.73-1.14-.96-1.82-.23-.68-.35-1.43-.35-2.26h4.27c.02.68.14,1.26.36,1.75.22.48.52.88.9,1.19.39.31.85.54,1.39.68.54.14,1.14.22,1.79.22.58,0,1.09-.07,1.54-.2.45-.13.83-.32,1.14-.56.31-.24.55-.52.71-.86s.25-.7.25-1.11Z"/>
        </g>
      </g>
      <g>
        <path class="cls-1" d="M755.55,61.67c-.49-.66-.3-1.32-.19-1.57.1-.25.44-.85,1.25-.97l22.26-3.28c.73-.11,1.27-.73,1.27-1.47s-.54-1.37-1.27-1.47l-22.26-3.28c-.81-.12-1.15-.72-1.25-.98-.11-.25-.3-.91.19-1.57l26.62-35.83c.44-.59.38-1.42-.14-1.94-.52-.52-1.35-.58-1.94-.14l-35.83,26.62c-.66.49-1.32.3-1.57.19-.25-.1-.86-.44-.97-1.25l-3.29-22.26c-.11-.73-.74-1.27-1.47-1.27s-1.37.54-1.47,1.27l-3.28,22.26c-.12.81-.72,1.15-.97,1.25-.25.1-.91.3-1.57-.19l-35.83-26.62c-.59-.44-1.42-.38-1.94.14-.52.52-.58,1.35-.14,1.94l26.62,35.83c.49.66.3,1.32.19,1.57-.1.25-.44.85-1.25.97l-22.27,3.29c-.73.11-1.27.73-1.27,1.47s.54,1.37,1.27,1.47l22.27,3.28c.81.12,1.14.72,1.25.97.1.25.29.91-.19,1.57l-26.62,35.83c-.44.59-.38,1.42.14,1.94.52.52,1.35.58,1.94.14l35.83-26.62c.66-.49,1.32-.3,1.57-.19.25.11.85.44.97,1.25l3.28,22.26c.11.73.74,1.27,1.47,1.27s1.37-.54,1.47-1.27l3.29-22.26c.12-.81.72-1.15.97-1.25.25-.1.91-.3,1.57.19l35.83,26.62c.26.2.58.29.89.29.38,0,.77-.15,1.05-.44.52-.52.58-1.35.14-1.94l-26.62-35.83Z"/>
        <path class="cls-1" d="M64.12,61.67c-.49-.66-.3-1.32-.19-1.57.1-.25.44-.85,1.25-.97l22.26-3.28c.73-.11,1.27-.73,1.27-1.47s-.54-1.37-1.27-1.47l-22.26-3.28c-.81-.12-1.15-.72-1.25-.98-.11-.25-.3-.91.19-1.57l26.62-35.83c.44-.59.38-1.42-.14-1.94-.52-.52-1.35-.58-1.94-.14l-35.83,26.62c-.66.49-1.32.3-1.57.19-.25-.1-.86-.44-.97-1.25l-3.29-22.26c-.11-.73-.74-1.27-1.47-1.27s-1.37.54-1.47,1.27l-3.28,22.26c-.12.81-.72,1.15-.97,1.25-.25.1-.91.3-1.57-.19L2.38,9.14c-.59-.44-1.42-.38-1.94.14-.52.52-.58,1.35-.14,1.94l26.62,35.83c.49.66.3,1.32.19,1.57-.1.25-.44.85-1.25.97l-22.27,3.29c-.73.11-1.27.73-1.27,1.47s.54,1.37,1.27,1.47l22.27,3.28c.81.12,1.14.72,1.25.97.1.25.29.91-.19,1.57L.29,97.5c-.44.59-.38,1.42.14,1.94.52.52,1.35.58,1.94.14l35.83-26.62c.66-.49,1.32-.3,1.57-.19.25.11.85.44.97,1.25l3.28,22.26c.11.73.74,1.27,1.47,1.27s1.37-.54,1.47-1.27l3.29-22.26c.12-.81.72-1.15.97-1.25.25-.1.91-.3,1.57.19l35.83,26.62c.26.2.58.29.89.29.38,0,.77-.15,1.05-.44.52-.52.58-1.35.14-1.94l-26.62-35.83Z"/>
      </g>
    </g>
  </g>
</svg>