<?xml version="1.0" encoding="UTF-8"?>
<svg id="Layer_2" data-name="Layer 2" xmlns="http://www.w3.org/2000/svg" viewBox="0 0 141.76 65.76">
  <g id="Layer_1-2" data-name="Layer 1">
    <g>
      <path d="M45.16,36.6l18-2.66c.53-.08.92-.53.92-1.06s-.39-.99-.92-1.06l-18-2.66L65.55,1.72c.32-.43.27-1.03-.1-1.4-.38-.38-.97-.42-1.4-.1l-27.44,20.38-2.66-18c-.08-.53-.53-.92-1.07-.92s-.99.39-1.07.92l-2.66,18L1.72.21C1.29-.11.69-.06.32.32-.06.69-.11,1.29.21,1.72l20.38,27.44-18,2.66c-.53.08-.92.53-.92,1.06s.39.99.92,1.06l18,2.66L.21,64.04c-.32.43-.27,1.03.1,1.4.38.38.98.42,1.4.1l27.44-20.38,2.66,18c.08.53.53.92,1.07.92s.99-.39,1.07-.92l2.66-18,27.44,20.38c.19.14.42.21.64.21.28,0,.55-.11.76-.32.38-.38.42-.97.1-1.4l-20.38-27.44Z"/>
      <path d="M121.16,36.6l18-2.66c.53-.08.92-.53.92-1.06s-.39-.99-.92-1.06l-18-2.66L141.54,1.72c.32-.43.27-1.03-.1-1.4-.38-.38-.97-.42-1.4-.1l-27.44,20.38-2.66-18c-.08-.53-.53-.92-1.07-.92s-.99.39-1.07.92l-2.66,18L77.72.21c-.43-.32-1.03-.27-1.4.1-.38.38-.42.97-.1,1.4l20.38,27.44-18,2.66c-.53.08-.92.53-.92,1.06s.39.99.92,1.06l18,2.66-20.38,27.44c-.32.43-.27,1.03.1,1.4.38.38.98.42,1.4.1l27.44-20.38,2.66,18c.08.53.53.92,1.07.92s.99-.39,1.07-.92l2.66-18,27.44,20.38c.19.14.42.21.64.21.28,0,.55-.11.76-.32.38-.38.42-.97.1-1.4l-20.38-27.44Z"/>
    </g>
  </g>
</svg>