<?xml version="1.0" encoding="UTF-8"?>
<svg id="Layer_2" data-name="Layer 2" xmlns="http://www.w3.org/2000/svg" viewBox="0 0 592.57 80.72">
  <g id="Layer_1-2" data-name="Layer 1">
    <g>
      <g>
        <path d="M115.31,0h27.68c15.22,0,26.52,11.3,26.52,26.52v54.2h-36.9v-33.33h-6.92v33.33h-36.9V26.52c0-15.22,11.3-26.52,26.52-26.52Z"/>
        <path d="M176.6,47.4h28.25l-18.45-9.11c-6.92-3.46-10.15-8.53-10.15-16.26v-4.73c0-11.19,6.11-17.3,17.3-17.3h57.77v33.33h-26.41l18.11,8.99c6.92,3.46,10.03,8.65,10.03,16.38v4.73c0,11.19-6.11,17.3-17.3,17.3h-59.16v-33.33Z"/>
        <path d="M275.7,32.92h-17.3V0h71.5v32.92h-17.3v47.8h-36.9v-47.8Z"/>
        <path d="M335.38,0h53.05c15.22,0,26.52,11.3,26.52,26.52v6.92c0,8.19-3.34,15.34-8.65,20.07l12.8,27.22h-37.94l-8.88-20.3v20.3h-36.9V0Z"/>
        <path d="M449.58,0h27.68c15.22,0,26.52,11.3,26.52,26.52v54.2h-36.9v-33.33h-6.92v33.33h-36.9V26.52c0-15.22,11.3-26.52,26.52-26.52Z"/>
      </g>
      <g>
        <path d="M45.16,44.31l18-2.66c.53-.08.92-.53.92-1.06s-.39-.99-.92-1.06l-18-2.66,20.38-27.44c.32-.43.27-1.03-.1-1.4-.38-.38-.97-.42-1.4-.1l-27.44,20.38-2.66-18c-.08-.53-.53-.92-1.07-.92s-.99.39-1.07.92l-2.66,18L1.72,7.92c-.43-.32-1.03-.27-1.4.1-.38.38-.42.97-.1,1.4l20.38,27.44-18,2.66c-.53.08-.92.53-.92,1.06s.39.99.92,1.06l18,2.66L.21,71.75c-.32.43-.27,1.03.1,1.4.38.38.98.42,1.4.1l27.44-20.38,2.66,18c.08.53.53.92,1.07.92s.99-.39,1.07-.92l2.66-18,27.44,20.38c.19.14.42.21.64.21.28,0,.55-.11.76-.32.38-.38.42-.97.1-1.4l-20.38-27.44Z"/>
        <path d="M571.97,44.31l18-2.66c.53-.08.92-.53.92-1.06s-.39-.99-.92-1.06l-18-2.66,20.38-27.44c.32-.43.27-1.03-.1-1.4-.38-.38-.97-.42-1.4-.1l-27.44,20.38-2.66-18c-.08-.53-.53-.92-1.07-.92s-.99.39-1.07.92l-2.66,18-27.44-20.38c-.43-.32-1.03-.27-1.4.1-.38.38-.42.97-.1,1.4l20.38,27.44-18,2.66c-.53.08-.92.53-.92,1.06s.39.99.92,1.06l18,2.66-20.38,27.44c-.32.43-.27,1.03.1,1.4.38.38.98.42,1.4.1l27.44-20.38,2.66,18c.08.53.53.92,1.07.92s.99-.39,1.07-.92l2.66-18,27.44,20.38c.19.14.42.21.64.21.28,0,.55-.11.76-.32.38-.38.42-.97.1-1.4l-20.38-27.44Z"/>
      </g>
    </g>
  </g>
</svg>